<svg width="132" height="80" viewBox="0 0 132 80" fill="none" xmlns="http://www.w3.org/2000/svg">
<g clip-path="url(#clip0_42_1056)">
<path d="M124.085 47.0818C125.491 47.825 125.455 48.9426 124.008 49.5792L60.2422 77.6177C58.7952 78.2543 56.4815 78.1678 55.0749 77.4246L2.97481 49.8762L71.9844 19.5334L124.079 47.0816L124.085 47.0818Z" fill="#5C0B22"/>
<path d="M111.998 38.9902C113.326 39.7476 113.331 40.9746 112.014 41.732L53.967 75.0922C52.6498 75.8496 50.5054 75.8496 49.1779 75.0922L0.00512695 47.0185L62.8254 10.9165L111.993 38.9902H111.998Z" fill="#E31B54"/>
<path d="M50.9955 65.9327L2.07804 38.2074L2.05762 45.8065L50.9751 73.5318L109.481 39.8838L109.502 32.2847L50.9955 65.9327Z" fill="#FFF5F6"/>
<path d="M111.999 28.0737C113.326 28.8311 113.331 30.0581 112.014 30.8154L53.9675 64.1757C52.6503 64.9331 50.5059 64.9331 49.1784 64.1757L0.00561523 36.102L62.8259 0L111.994 28.0737H111.999Z" fill="#E31B54"/>
<path d="M112.013 41.7368L53.967 75.097C52.6498 75.8544 50.5054 75.8544 49.1779 75.097L2.79281 48.6088C2.34351 48.3512 2.06269 47.8766 2.0678 47.3616L2.07801 41.8731C2.07801 40.7673 3.29316 40.0756 4.25814 40.631L49.1728 66.276C50.5003 67.0334 52.6447 67.0334 53.9619 66.276L112.008 32.9158C112.662 32.5371 112.994 32.0473 112.994 31.5525V29.457C112.994 29.9519 112.672 30.4416 112.013 30.8203L53.967 64.1806C52.6498 64.938 50.5054 64.938 49.1779 64.1806L0.00510568 36.1018V37.2076H0V38.0256V38.2023L0.00510568 47.0233V49.1187L49.1677 77.1925C50.4952 77.9498 52.6395 77.9498 53.9568 77.1925L112.003 43.8322C112.657 43.4535 112.989 42.9637 112.989 42.4689V40.3735C112.989 40.8683 112.667 41.3581 112.008 41.7368H112.013Z" fill="#BC1A48"/>
<path d="M25.8655 56.1523L46.5179 67.9524" stroke="#E31B54" stroke-width="0.95" stroke-miterlimit="10" stroke-linecap="round"/>
<path d="M55.4578 68.0335L104.682 39.7124" stroke="#E31B54" stroke-width="0.95" stroke-miterlimit="10" stroke-linecap="round"/>
<path d="M9.64454 45.4533C9.64454 45.4533 3.65048 47.5588 0.214355 58.1117L3.79344 56.4152L5.2026 61.5048C5.2026 61.5048 9.12887 50.5631 14.9136 48.4626L9.64454 45.4482V45.4533Z" fill="#66D0ED"/>
</g>
<defs>
<clipPath id="clip0_42_1056">
<rect width="132" height="80" fill="white"/>
</clipPath>
</defs>
</svg>
