<svg width="136" height="77" viewBox="0 0 136 77" fill="none" xmlns="http://www.w3.org/2000/svg">
<path d="M122.511 46.4596C124.488 47.459 124.497 49.0775 122.535 50.0769L97.3132 62.9162C96.2552 63.4546 94.7482 63.698 93.2687 63.5707L87.7743 63.0935L61.9321 76.2504C59.9688 77.2499 56.7781 77.2499 54.8036 76.2504L11.6353 54.4437C10.7925 54.0165 10.787 53.325 11.6261 52.8994L71.6919 22.3204C72.5292 21.8932 73.8908 21.8932 74.7336 22.3204L122.511 46.4596Z" fill="#5C0B22"/>
<path d="M72.8096 16.4499L77.8019 13.4629C78.3284 13.1476 78.9262 12.9629 79.5349 12.9629C79.8987 12.9629 80.2972 13.0245 80.6793 13.2073C81.4909 13.5954 81.5348 14.0842 81.4233 14.4293C81.3465 14.6682 81.1765 14.8659 80.9626 14.9928" stroke="#66D0ED" stroke-miterlimit="10" stroke-linecap="round"/>
<path d="M113.419 41.6503C115.383 42.807 115.392 44.6802 113.443 45.8369L88.3863 60.6974C87.3351 61.3205 85.838 61.6022 84.3682 61.4548L78.9097 60.9026L53.2368 76.1306C51.2863 77.2873 48.1164 77.2873 46.1549 76.1306L3.2692 50.8912C2.43196 50.3967 2.42648 49.5963 3.26006 49.1038L62.9327 13.7111C63.7644 13.2167 65.1172 13.2167 65.9544 13.7111L113.419 41.6503Z" fill="#E31B54"/>
<path d="M113.419 41.0682C115.383 42.225 115.392 44.0981 113.443 45.2549L88.3863 60.1153C87.3351 60.7385 85.838 61.0202 84.3682 60.8728L78.9097 60.3206L53.2368 75.5485C51.2863 76.7053 48.1164 76.7053 46.1549 75.5485L3.2692 50.3091C2.43196 49.8147 2.42648 49.0143 3.26006 48.5218L62.9327 13.1291C63.7644 12.6347 65.1172 12.6347 65.9544 13.1291L113.419 41.0682Z" fill="#BC1A48"/>
<path d="M104.647 40.7269L49.0377 73.7109L7.72229 49.3297L63.333 16.3457L104.647 40.7269Z" fill="#E5667D"/>
<path d="M104.647 36.4693L49.0377 69.4515L7.72229 49.3297L63.333 16.3457L104.647 36.4693Z" fill="#EBB4BC"/>
<path d="M104.647 31.7006L49.0377 64.6846L7.72229 49.3297L63.333 16.3457L104.647 31.7006Z" fill="#FFF5F6"/>
<path d="M100.303 24.8905C102.266 26.0473 102.276 27.9204 100.327 29.0772L74.654 44.3052L75.6046 47.531C75.8605 48.4004 75.3889 49.2866 74.3377 49.9098L49.2808 64.7702C47.3303 65.927 45.1623 65.6173 42.199 64.7702L3.26915 50.893C2.43008 50.3986 2.42643 49.5982 3.26001 49.1057L62.9308 13.7111C63.7626 13.2167 65.1153 13.2167 65.9544 13.7111L100.303 24.8887V24.8905Z" fill="#E31B54"/>
<path d="M100.303 24.3085C102.266 25.4652 102.276 27.3384 100.327 28.4952L74.654 43.7231L75.6046 46.949C75.8605 47.8184 75.3889 48.7046 74.3377 49.3278L49.2808 64.1882C47.3303 65.3449 45.2683 65.0427 42.199 64.1882L3.26915 50.311C2.43008 49.8166 2.42643 49.0162 3.26001 48.5236L62.9308 13.1291C63.7626 12.6347 65.1153 12.6347 65.9544 13.1291L100.303 24.3066V24.3085Z" fill="#E31B54"/>
<path d="M80.9626 14.9929L72.2886 20.1666C72.2886 20.1666 71.0016 20.9427 69.7695 20.1666C68.7148 19.5024 70.2156 18.6329 70.2156 18.6329L76.9172 14.5918" stroke="#66D0ED" stroke-miterlimit="10" stroke-linecap="round"/>
</svg>
