<svg width="147" height="80" viewBox="0 0 147 80" fill="none" xmlns="http://www.w3.org/2000/svg">
<g clip-path="url(#clip0_42_1031)">
<g clip-path="url(#clip1_42_1031)">
<path d="M144.649 52.8555C144.595 52.77 144.545 52.6845 144.487 52.6031C144.458 52.5623 144.429 52.5176 144.4 52.4768C144.35 52.3995 144.296 52.318 144.237 52.2407C144.204 52.1959 144.175 52.147 144.138 52.1022C144.129 52.09 144.117 52.0737 144.104 52.0574C144.046 51.9638 143.975 51.8742 143.905 51.7805C143.863 51.7194 143.813 51.6583 143.767 51.6013C143.676 51.4832 143.585 51.3652 143.489 51.2552C143.481 51.243 143.468 51.2308 143.456 51.2186C143.339 51.076 143.214 50.9335 143.09 50.7951C142.961 50.6485 142.824 50.5019 142.686 50.3594C142.483 50.1435 142.266 49.9318 142.05 49.72C141.942 49.6142 141.83 49.5083 141.717 49.4065C134.316 42.6102 119.217 38.5992 103.524 39.21C103.054 39.2263 102.58 39.2507 102.11 39.2752C102.106 39.2752 102.101 39.2752 102.093 39.2752C102.051 39.2752 102.014 39.2752 101.972 39.2792C101.723 39.2915 101.473 39.3077 101.224 39.324C101.22 39.324 101.216 39.324 101.211 39.324C100.954 39.3403 100.7 39.3566 100.442 39.377C100.413 39.377 100.376 39.377 100.342 39.3851C100.076 39.4055 99.8102 39.4299 99.544 39.4503C99.5107 39.4503 99.4775 39.4503 99.4442 39.4584C99.4109 39.4584 99.3777 39.4584 99.3444 39.4666C99.124 39.4869 98.8995 39.5073 98.6708 39.5317C98.546 39.5439 98.4171 39.5561 98.2924 39.5684C98.0803 39.5887 97.8682 39.6131 97.6562 39.6376C97.5356 39.6498 97.415 39.662 97.2985 39.6783C97.153 39.6946 97.0033 39.7109 96.8578 39.7312C96.6249 39.7597 96.392 39.7882 96.1592 39.8208C96.1176 39.8208 96.0718 39.829 96.0303 39.8371C96.0053 39.8371 95.9845 39.8371 95.9637 39.8453C95.9429 39.8453 95.9221 39.8453 95.8972 39.8534C95.7849 39.8697 95.6727 39.8819 95.5645 39.8982C95.3982 39.9186 95.2277 39.9471 95.0614 39.9715H95.0572C93.3939 40.2199 91.793 40.5131 90.2544 40.8511C90.059 40.8918 89.8677 40.9366 89.6805 40.9814C89.5849 41.0017 89.4893 41.0221 89.3936 41.0465C89.298 41.0669 89.2065 41.0872 89.1109 41.1117C89.0235 41.132 88.9404 41.1524 88.8531 41.1768C88.6826 41.2175 88.5121 41.2583 88.3416 41.3031C88.2875 41.3153 88.2376 41.3275 88.1877 41.3438C88.1087 41.3601 88.0339 41.3804 87.959 41.4008C87.5806 41.4985 87.2064 41.6003 86.8321 41.7021H86.828C86.3331 41.8406 85.8466 41.9872 85.3684 42.1338C85.1231 42.2071 84.886 42.2844 84.649 42.3618C84.3621 42.4555 84.0793 42.5491 83.8007 42.6468C83.7924 42.6468 83.7841 42.6468 83.7758 42.655C83.7591 42.6591 83.7425 42.6631 83.7259 42.6713C83.5637 42.7242 83.4015 42.7812 83.2393 42.8423C83.1396 42.8749 83.0439 42.9115 82.9483 42.9482C82.9483 42.9482 82.9441 42.9482 82.94 42.9482C82.8235 42.9889 82.7071 43.0296 82.5907 43.0744C82.5823 43.0744 82.5699 43.0785 82.5616 43.0826C82.3453 43.1599 82.1291 43.2454 81.9129 43.331C81.6925 43.4124 81.4762 43.4979 81.26 43.5875H81.2559C80.8234 43.7667 80.3992 43.9418 79.9876 44.125C79.5717 44.3082 79.1642 44.4915 78.7692 44.6829C78.5696 44.7765 78.3742 44.8743 78.1787 44.972L63.791 51.9108C61.1879 53.165 58.1108 54.1586 54.7259 54.8346C52.888 55.2051 51.1623 55.6856 49.5905 56.2639C49.395 56.3372 49.1996 56.4105 49.0083 56.4878C48.817 56.5611 48.6257 56.6385 48.4386 56.7199C48.2515 56.7973 48.0685 56.8787 47.8856 56.9602C47.8856 56.9602 47.8828 56.9602 47.8772 56.9602C47.6984 57.0416 47.5196 57.1231 47.3491 57.2086C47.3491 57.2086 47.3477 57.2086 47.345 57.2086C47.1662 57.29 46.9957 57.3755 46.8252 57.4611C46.6464 57.5506 46.4759 57.6402 46.3054 57.7339C45.3116 57.685 44.3261 57.7339 43.353 57.8805C43.012 57.9334 42.6794 57.9945 42.3633 58.0678C42.3592 58.0678 42.3592 58.0678 42.355 58.0678L34.8909 59.1713L34.8368 59.0817C34.7786 59.1225 34.7204 59.1673 34.6663 59.208H34.6539L28.038 60.1893L27.984 60.0957C27.9257 60.1364 27.8675 60.1812 27.8093 60.2219H27.801L21.5178 61.1544L21.4596 61.0608C21.4055 61.0974 21.3556 61.1381 21.3016 61.1748C21.3016 61.1748 21.3016 61.1748 21.2974 61.1748C20.9689 61.1992 20.6446 61.2399 20.3161 61.2888C19.6341 61.3906 19.0021 61.5372 18.4199 61.7245C17.7255 61.9485 17.1017 62.2295 16.5528 62.5715C15.5049 63.223 14.7232 64.0904 14.2075 65.1736C13.6961 66.2445 13.5173 67.3766 13.6753 68.5615C13.8291 69.7261 14.3032 70.9478 15.1016 72.2223C15.7752 73.2974 16.5944 74.2787 17.555 75.1583C18.8939 76.3921 20.5198 77.4387 22.4202 78.3019C23.676 78.872 24.9193 79.2955 26.1502 79.5765C26.4329 79.6417 26.7157 79.6987 26.9984 79.7475C27.539 79.8453 28.0796 79.9104 28.616 79.9511H28.6202C29.0319 79.9796 29.4394 79.9918 29.8469 79.9878C30.5413 79.9837 31.2316 79.9267 31.9136 79.8249L32.7826 79.6946C32.7826 79.6946 32.8076 79.6987 32.8201 79.7027L32.8117 79.6905L39.3028 78.7295C39.3028 78.7295 39.3278 78.7336 39.3403 78.7377L39.3319 78.7254L46.1599 77.7156C46.1599 77.7156 46.1807 77.7196 46.1931 77.7237L46.1848 77.7115L54.9463 76.4125L55.5493 76.3229L55.541 76.3107C56.1855 76.1845 56.7843 76.0134 57.329 75.8058C57.6035 75.704 57.8613 75.5859 58.1066 75.4637C58.2563 75.4718 58.4019 75.4881 58.5516 75.5003C58.589 75.5003 58.6306 75.5085 58.668 75.5085C58.7678 75.5166 58.8718 75.5289 58.9716 75.537C59.2543 75.5614 59.5371 75.5818 59.824 75.6021C59.9612 75.6103 60.0985 75.6184 60.2398 75.6266H60.2523C60.3147 75.6266 60.3729 75.6347 60.4353 75.6388C60.56 75.6429 60.6889 75.651 60.8137 75.6551C60.9426 75.6592 61.0715 75.6632 61.1962 75.6714C61.4499 75.6795 61.7077 75.6877 61.9614 75.6958C62.136 75.6958 62.3107 75.704 62.4895 75.704C62.4936 75.704 62.4978 75.704 62.5019 75.704C63.4542 75.7162 64.4064 75.6958 65.3545 75.651C66.1238 75.6144 66.889 75.5574 67.6499 75.4841C69.438 75.309 71.2635 75.2153 73.0848 75.2112C73.825 75.2112 74.5652 75.2194 75.3053 75.2479H75.3095C76.3865 75.2845 77.4593 75.3538 78.528 75.4556L95.839 77.0722C97.1696 77.2554 98.5252 77.4061 99.8975 77.5201C100.313 77.5527 100.729 77.5853 101.149 77.6138C101.394 77.63 101.644 77.6463 101.893 77.6586C102.185 77.6748 102.476 77.6911 102.767 77.7033H102.775C104.497 77.7848 106.235 77.8133 107.981 77.7807C108.484 77.7726 108.992 77.7603 109.499 77.7441C109.981 77.7278 110.464 77.7074 110.946 77.6789C111.428 77.6545 111.915 77.6219 112.397 77.5893C112.884 77.5567 113.366 77.516 113.849 77.4712C114.331 77.4264 114.813 77.3776 115.3 77.3246C116.269 77.2188 117.233 77.0925 118.198 76.9541C118.847 76.8604 119.487 76.7545 120.115 76.6405C120.344 76.6039 120.568 76.5632 120.793 76.5184C121.076 76.4654 121.358 76.4125 121.637 76.3555C121.891 76.3066 122.14 76.2537 122.39 76.2048C122.456 76.1926 122.519 76.1763 122.581 76.1641C122.818 76.1152 123.055 76.0623 123.288 76.0094C123.542 75.9523 123.795 75.8953 124.045 75.8343C124.07 75.8343 124.095 75.8261 124.12 75.818C124.369 75.7569 124.623 75.6958 124.868 75.6347C125.891 75.3782 126.885 75.1013 127.845 74.8081C128.062 74.7429 128.274 74.6778 128.486 74.6086C128.498 74.6086 128.515 74.6004 128.531 74.5964C128.706 74.5393 128.881 74.4823 129.055 74.4253C129.114 74.405 129.176 74.3846 129.238 74.3642C129.434 74.2991 129.625 74.2339 129.816 74.1647C129.825 74.1647 129.837 74.1606 129.845 74.1566C130.033 74.0914 130.224 74.0222 130.411 73.953C130.448 73.9407 130.49 73.9245 130.532 73.9082C130.723 73.8389 130.91 73.7697 131.101 73.6964C132.765 73.0652 134.316 72.373 135.734 71.6237C135.863 71.5586 135.991 71.4894 136.12 71.4201C136.445 71.245 136.761 71.0699 137.073 70.8867C137.214 70.8052 137.351 70.7238 137.488 70.6383C137.705 70.5121 137.913 70.3817 138.116 70.2514C138.287 70.1456 138.457 70.0356 138.624 69.9257C139.131 69.5918 139.622 69.2456 140.083 68.8914C140.591 68.5086 141.065 68.1136 141.514 67.7145C141.597 67.6412 141.68 67.5679 141.759 67.4906C142.117 67.1648 142.453 66.8309 142.769 66.4929C142.869 66.3911 142.965 66.2852 143.056 66.1794C143.339 65.8617 143.605 65.5441 143.851 65.2265C143.896 65.1654 143.942 65.1043 143.988 65.0433C144.108 64.8844 144.221 64.7256 144.329 64.5628C144.404 64.461 144.47 64.3551 144.537 64.2533C144.591 64.1718 144.645 64.0863 144.695 64.0049C144.711 63.9845 144.724 63.9601 144.736 63.9397C144.774 63.8827 144.807 63.8216 144.84 63.7646C144.915 63.6425 144.982 63.5203 145.048 63.3981C145.119 63.276 145.181 63.1538 145.244 63.0317C145.306 62.9095 145.364 62.7833 145.422 62.6611C145.481 62.5389 145.535 62.4127 145.585 62.2905C145.776 61.8304 145.934 61.3662 146.055 60.902C146.075 60.8327 146.092 60.7594 146.109 60.6861C146.134 60.6006 146.15 60.511 146.171 60.4255C146.175 60.4092 146.179 60.3889 146.179 60.3685C146.204 60.2586 146.225 60.1446 146.242 60.0305C146.246 60.0224 146.246 60.0142 146.25 60.002C146.262 59.9206 146.275 59.8351 146.287 59.7536C146.296 59.6926 146.304 59.6274 146.312 59.5622C146.325 59.4564 146.333 59.3505 146.341 59.2446C146.35 59.151 146.358 59.0573 146.358 58.9636C146.47 56.9398 145.921 54.8753 144.641 52.8311L144.649 52.8555Z" fill="#5C0B22"/>
</g>
<path d="M45.9479 45.3974L88.1178 28.9066L88.7188 30.41L46.4783 46.7522C45.9092 46.974 45.3378 46.4457 45.5147 45.8697C45.5792 45.6546 45.7415 45.4841 45.9489 45.4012L45.9479 45.3974Z" fill="#FFCAD9"/>
<path d="M41.4184 56.7586C41.3422 56.3186 41.6398 55.8969 42.0837 55.8191L86.9433 46.4768L87.1978 48.0584L42.3611 57.4103C41.9173 57.4881 41.4974 57.1938 41.4211 56.7538L41.4184 56.7586Z" fill="#FFCAD9"/>
<path d="M37.8168 34.88L16.5637 40.9131C16.2125 40.9606 15.8601 41.0326 15.5087 41.1363C14.8648 41.3231 14.265 41.5938 13.7109 41.9397C13.051 42.3558 12.4587 42.8813 11.9285 43.5255C10.9191 44.7514 10.1546 46.3975 9.62544 48.4585C9.10222 50.4977 8.88776 52.654 8.98851 54.9216C9.08621 57.1498 9.47824 59.4872 10.1732 61.9354C10.7585 63.9971 11.4841 65.8826 12.348 67.5842C13.5532 69.9598 15.0268 71.9821 16.7747 73.6576C18.1948 75.0208 19.6045 75.9614 20.9992 76.4927C21.504 76.6866 22.008 76.8205 22.5095 76.903C22.8923 76.9669 23.2779 76.998 23.6541 76.9956C24.3063 76.9951 24.9519 76.9001 25.5996 76.7122L47.8876 70.3853L37.8093 34.8821L37.8168 34.88Z" fill="#81092E"/>
<path d="M47.3251 70.5448C46.6802 70.7279 46.0308 70.8239 45.3797 70.8281C44.9987 70.8278 44.6168 70.7957 44.2351 70.7355C43.7336 70.6531 43.2333 70.5181 42.7248 70.3253C41.3273 69.7987 39.9204 68.8533 38.5003 67.4902C36.7534 65.8184 35.2788 63.7923 34.0736 61.4168C33.2097 59.7151 32.484 57.8297 31.8988 55.7679C31.2038 53.3198 30.808 50.9834 30.7141 48.7541C30.6171 46.4855 30.8278 44.3303 31.351 42.291C31.8802 40.23 32.6495 38.5866 33.6541 37.3581C34.1843 36.7138 34.7766 36.1884 35.4364 35.7723C35.9895 35.4226 36.5867 35.1567 37.2343 34.9689C40.1163 34.1307 43.0606 35.1535 46.0602 38.0272C46.1002 38.068 46.1439 38.1078 46.1828 38.1449C49.1226 41.0075 51.2819 44.8745 52.6644 49.7447C52.9323 50.6883 53.1563 51.6202 53.3344 52.5331C54.0925 56.3883 54.0498 59.949 53.2111 63.2179C52.4736 66.1007 51.2649 68.1659 49.5861 69.4172C48.912 69.9257 48.1581 70.2963 47.3305 70.5352L47.3251 70.5448Z" fill="#94022F"/>
<path d="M39.071 72.912C37.6525 72.3111 36.216 71.2617 34.7558 69.7574C32.9594 67.911 31.4309 65.6955 30.1646 63.1045C29.2564 61.2468 28.4844 59.1979 27.8485 56.9578C27.0945 54.3017 26.6428 51.7685 26.4982 49.3608C26.3495 46.9102 26.5139 44.5915 26.9938 42.3999C27.4798 40.1866 28.2164 38.428 29.2009 37.1289" stroke="#1AC6D8" stroke-width="1.70213" stroke-miterlimit="10" stroke-linecap="round"/>
<path d="M32.6103 74.746C31.1918 74.1451 29.7553 73.0957 28.2951 71.5914C26.4987 69.745 24.9702 67.5295 23.7039 64.9385C22.7957 63.0808 22.0237 61.0319 21.3878 58.7918C20.6338 56.1357 20.1821 53.6024 20.0375 51.1948C19.8889 48.7441 20.0532 46.4254 20.5331 44.2339C21.0191 42.0206 21.7557 40.262 22.7402 38.9629" stroke="#1AC6D8" stroke-width="1.70213" stroke-miterlimit="10" stroke-linecap="round"/>
<path d="M26.4646 76.4906C25.046 75.8897 23.6096 74.8403 22.1493 73.336C20.3529 71.4896 18.8245 69.2741 17.5582 66.6831C16.65 64.8254 15.8779 62.7765 15.242 60.5364C14.488 57.8803 14.0364 55.3471 13.8918 52.9394C13.7431 50.4888 13.9074 48.1701 14.3874 45.9785C14.8734 43.7652 15.6099 42.0066 16.5945 40.7075" stroke="#1AC6D8" stroke-width="1.70213" stroke-miterlimit="10" stroke-linecap="round"/>
<path opacity="0.27" d="M106.541 72.5822C99.4133 74.6056 92.1874 74.4289 85.5949 72.4587L69.4478 69.1022C67.7693 68.7558 66.0681 68.5724 64.3604 68.5513C62.6564 68.5292 60.9442 68.6781 59.2613 68.9872C57.4938 69.3123 55.7047 69.4188 53.9262 69.3054C53.6866 69.2892 53.4459 69.2692 53.209 69.2481C52.971 69.2233 52.733 69.1986 52.4977 69.169C52.309 69.1463 52.1154 69.121 51.9283 69.0898C51.6615 69.0491 51.3963 69 51.1349 68.9497C51.0408 68.9323 50.9456 68.9111 50.8515 68.8937C50.8173 68.8873 50.7793 68.8821 50.7441 68.872C49.868 68.6832 48.9797 68.566 48.0927 68.4244C47.9778 68.4048 47.8639 68.389 47.7516 68.3647C42.4612 67.3415 37.3654 62.008 35.2711 54.6302C33.4383 48.1737 34.3844 41.8436 37.3012 37.9167C37.6068 37.5088 37.9311 37.1237 38.276 36.7688L39.0902 35.7831C40.2732 34.3554 41.6338 33.082 43.1342 32.0017C44.6309 30.9225 46.2655 30.029 48.0018 29.3515C51.199 28.1107 54.1248 26.2565 56.6123 23.9005L70.3716 10.8663C73.3484 7.94992 76.8417 5.49709 80.7684 3.67189C81.1265 3.50601 81.4867 3.34756 81.8469 3.18911C83.3032 2.56697 84.8158 2.02919 86.3832 1.58427C86.5444 1.5385 86.7057 1.49273 86.8594 1.44909C86.9644 1.41928 87.0656 1.39054 87.1727 1.36817C87.2552 1.34475 87.3377 1.32133 87.4186 1.30641C87.6382 1.25211 87.8567 1.19408 88.0784 1.14721C88.2171 1.10782 88.3553 1.08065 88.4934 1.05348C88.6022 1.02261 88.7216 1.00075 88.8324 0.977316C89.0306 0.933111 89.2308 0.896336 89.43 0.855846C89.5494 0.833993 89.6678 0.808426 89.7872 0.786574C89.9987 0.746605 90.2113 0.710352 90.4201 0.675163C90.4801 0.658131 90.5432 0.652246 90.6064 0.64636C90.8585 0.606892 91.1059 0.564773 91.3591 0.52902C91.3891 0.520504 91.425 0.518354 91.4523 0.514619C107.832 -1.77478 123.933 7.11438 130.567 22.1032C130.69 22.3813 130.81 22.6604 130.923 22.9454C131.036 23.2144 131.146 23.4882 131.249 23.7642C131.256 23.7902 131.27 23.8103 131.276 23.8326C131.362 24.0491 131.442 24.2752 131.523 24.5013C131.568 24.617 131.609 24.7337 131.647 24.8515C131.708 25.0266 131.77 25.2018 131.825 25.379C131.87 25.4947 131.902 25.6098 131.94 25.7277C131.991 25.8778 132.038 26.0291 132.081 26.1814C132.104 26.2631 132.135 26.3427 132.158 26.4245C132.204 26.5879 132.25 26.7476 132.296 26.9111C137.861 46.5146 126.329 66.9689 106.539 72.5869L106.541 72.5822Z" fill="#FF8DAD"/>
<path opacity="0.8" d="M106.541 72.5822C99.4133 74.6056 92.1874 74.4289 85.5949 72.4587L69.4478 69.1022C67.7693 68.7558 66.0681 68.5724 64.3604 68.5513C62.6564 68.5292 60.9442 68.6781 59.2613 68.9872C57.4938 69.3123 55.7047 69.4188 53.9262 69.3054C53.6866 69.2892 53.4459 69.2692 53.209 69.2481C52.971 69.2233 52.733 69.1986 52.4977 69.169C52.309 69.1463 52.1154 69.121 51.9283 69.0898C51.6615 69.0491 51.3963 69 51.1349 68.9497C51.0408 68.9323 50.9456 68.9111 50.8515 68.8937C50.8173 68.8873 50.7793 68.8821 50.7441 68.872C49.868 68.6832 48.9797 68.566 48.0927 68.4244C47.9778 68.4048 47.8639 68.389 47.7516 68.3647C42.4612 67.3415 37.3654 62.008 35.2711 54.6302C33.4383 48.1737 34.3844 41.8436 37.3012 37.9167C37.6068 37.5088 37.9311 37.1237 38.276 36.7688L39.0902 35.7831C40.2732 34.3554 41.6338 33.082 43.1342 32.0017C44.6309 30.9225 46.2655 30.029 48.0018 29.3515C51.199 28.1107 54.1248 26.2565 56.6123 23.9005L70.3716 10.8663C73.3484 7.94992 76.8417 5.49709 80.7684 3.67189C81.1265 3.50601 81.4867 3.34756 81.8469 3.18911C83.3032 2.56697 84.8158 2.02919 86.3832 1.58427C86.5444 1.5385 86.7057 1.49273 86.8594 1.44909C86.9644 1.41928 87.0656 1.39054 87.1727 1.36817C87.2552 1.34475 87.3377 1.32133 87.4186 1.30641C87.6382 1.25211 87.8567 1.19408 88.0784 1.14721C88.2171 1.10782 88.3553 1.08065 88.4934 1.05348C88.6022 1.02261 88.7216 1.00075 88.8324 0.977316C89.0306 0.933111 89.2308 0.896336 89.43 0.855846C89.5494 0.833993 89.6678 0.808426 89.7872 0.786574C89.9987 0.746605 90.2113 0.710352 90.4201 0.675163C90.4801 0.658131 90.5432 0.652246 90.6064 0.64636C90.8585 0.606892 91.1059 0.564773 91.3591 0.52902C91.3891 0.520504 91.425 0.518354 91.4523 0.514619C107.832 -1.77478 123.933 7.11438 130.567 22.1032C130.69 22.3813 130.81 22.6604 130.923 22.9454C131.036 23.2144 131.146 23.4882 131.249 23.7642C131.256 23.7902 131.27 23.8103 131.276 23.8326C131.362 24.0491 131.442 24.2752 131.523 24.5013C131.568 24.617 131.609 24.7337 131.647 24.8515C131.708 25.0266 131.77 25.2018 131.825 25.379C131.87 25.4947 131.902 25.6098 131.94 25.7277C131.991 25.8778 132.038 26.0291 132.081 26.1814C132.104 26.2631 132.135 26.3427 132.158 26.4245C132.204 26.5879 132.25 26.7476 132.296 26.9111C137.861 46.5146 126.329 66.9689 106.539 72.5869L106.541 72.5822Z" fill="#E31B54"/>
<path fill-rule="evenodd" clip-rule="evenodd" d="M104.376 29.5978L102.703 27.4594C104.249 29.4371 104.47 32.4413 102.993 35.9877L104.665 38.1262C106.142 34.5798 105.923 31.5793 104.376 29.5978ZM75.8577 48.1685L77.5265 50.3021C79.0539 52.257 81.8743 53.2146 85.6377 52.7123C93.2126 51.7061 101.727 45.1744 104.662 38.1273L102.989 35.9889C100.054 43.036 91.5399 49.5676 83.965 50.5738C80.2048 51.0757 77.3859 50.1201 75.8577 48.1685Z" fill="#FF6399"/>
<path d="M102.993 35.9879C100.058 43.035 91.5438 49.5666 83.9689 50.5729C76.394 51.5791 72.6334 46.6815 75.568 39.6343C78.5027 32.5872 87.0209 26.0546 94.5958 25.0483C102.171 24.0421 105.928 28.9408 102.993 35.9879Z" fill="#8B0031"/>
<path d="M95.2657 34.6452L82.3723 41.9943L83.167 38.8985L85.8494 37.4145L86.9061 33.301L84.6246 33.2141L85.4149 30.1316L96.2496 30.8173L95.2668 34.6489L95.2657 34.6452ZM88.9057 33.3797L88.2046 36.1197L92.7522 33.6125L92.7723 33.5265L88.9068 33.3834" fill="white"/>
<path d="M93.1706 42.8225L81.3047 46.1548L82.046 43.2709L93.9082 39.9397L93.1706 42.8225Z" fill="white"/>
</g>
<defs>
<clipPath id="clip0_42_1031">
<rect width="146.383" height="80" fill="white"/>
</clipPath>
<clipPath id="clip1_42_1031">
<rect width="132.766" height="40.8511" fill="white" transform="translate(13.6169 39.1489)"/>
</clipPath>
</defs>
</svg>
