<svg width="146" height="32" viewBox="0 0 146 32" fill="none" xmlns="http://www.w3.org/2000/svg">
<g clip-path="url(#clip0_106_1203)">
<path d="M43.269 16.9907V21.7512H41.0437V10.2583H48.8119V12.0652H43.2713V15.1906H48.1968V16.9907H43.2713H43.269Z" fill="white"/>
<path d="M55.9152 9.62695V19.9665H58.3621V21.7508H51.1389V19.9665H53.6967V11.418H51.1389V9.62695H55.9152Z" fill="white"/>
<path d="M65.8296 20.5525C65.5401 20.9777 65.1919 21.3124 64.7848 21.5543C64.3777 21.7963 63.9299 21.9184 63.446 21.9184C63.0027 21.9184 62.5979 21.8506 62.2293 21.7127C61.8607 21.577 61.5441 21.3576 61.2817 21.0568C61.0194 20.7628 60.8136 20.3852 60.6689 19.9238C60.5241 19.4625 60.4518 18.9084 60.4518 18.2616V13.2095H62.6454V18.2775C62.6454 18.6257 62.6703 18.9175 62.7201 19.1549C62.7698 19.3924 62.8512 19.5801 62.9598 19.7225C63.0706 19.8695 63.2153 19.9758 63.394 20.0392C63.5726 20.1025 63.792 20.1341 64.0498 20.1341C64.2805 20.1341 64.4908 20.1115 64.6762 20.064C64.8639 20.0165 65.0268 19.9487 65.1692 19.8582C65.2891 19.7791 65.3976 19.6841 65.4926 19.5733C65.5876 19.4625 65.669 19.3381 65.7369 19.2024V13.2117H67.9396V21.7534H65.9494L65.8228 20.5525H65.8296Z" fill="white"/>
<path d="M75.8705 13.2114H78.2315L75.3662 17.402L78.3333 21.7508H75.9655L74.0003 18.9556L72.0509 21.7508H69.6741L72.6411 17.402L69.7826 13.2114H72.1436L73.9912 15.88L75.8705 13.2114Z" fill="white"/>
<path d="M91.7756 16.9907V21.7512H89.5503V10.2583H97.3185V12.0652H91.7778V15.1906H96.7034V16.9907H91.7778H91.7756Z" fill="white"/>
<path d="M104.634 20.5525C104.345 20.9777 103.997 21.3124 103.59 21.5543C103.183 21.7963 102.735 21.9184 102.251 21.9184C101.808 21.9184 101.403 21.8506 101.034 21.7127C100.665 21.577 100.349 21.3576 100.087 21.0568C99.8242 20.7628 99.6184 20.3852 99.4737 19.9238C99.329 19.4625 99.2566 18.9084 99.2566 18.2616V13.2095H101.45V18.2775C101.45 18.6257 101.475 18.9175 101.525 19.1549C101.575 19.3924 101.656 19.5801 101.765 19.7225C101.875 19.8695 102.02 19.9758 102.199 20.0392C102.377 20.1025 102.597 20.1341 102.855 20.1341C103.085 20.1341 103.296 20.1115 103.481 20.064C103.669 20.0165 103.832 19.9487 103.974 19.8582C104.094 19.7791 104.202 19.6841 104.297 19.5733C104.392 19.4625 104.474 19.3381 104.542 19.2024V13.2117H106.744V21.7534H104.754L104.628 20.5525H104.634Z" fill="white"/>
<path d="M114.309 19.0597C114.248 18.9602 114.142 18.8652 113.99 18.7747C113.832 18.6911 113.624 18.6119 113.366 18.5373C113.108 18.4626 112.782 18.3903 112.387 18.3156C111.887 18.2161 111.43 18.0895 111.016 17.9402C110.602 17.791 110.25 17.6078 109.956 17.3907C109.662 17.1804 109.431 16.9361 109.266 16.6557C109.101 16.3753 109.017 16.0564 109.017 15.6923C109.017 15.3282 109.101 15.0026 109.27 14.6814C109.438 14.3603 109.68 14.0776 109.996 13.8356C110.313 13.5937 110.695 13.4014 111.15 13.259C111.602 13.1165 112.113 13.0464 112.681 13.0464C113.248 13.0464 113.809 13.1165 114.284 13.2544C114.757 13.3947 115.159 13.5846 115.492 13.8266C115.817 14.0731 116.068 14.3671 116.243 14.7041C116.417 15.041 116.503 15.4074 116.503 15.8009H114.309C114.309 15.6584 114.286 15.525 114.239 15.4029C114.191 15.2807 114.121 15.1677 114.026 15.0682C113.895 14.937 113.716 14.8307 113.493 14.7515C113.269 14.6724 113 14.6339 112.683 14.6339C112.414 14.6339 112.181 14.6611 111.98 14.7131C111.781 14.7651 111.616 14.8397 111.491 14.9347C111.376 15.0184 111.288 15.1179 111.227 15.231C111.166 15.3441 111.136 15.4639 111.136 15.5906C111.136 15.7172 111.163 15.8348 111.215 15.9411C111.267 16.0496 111.362 16.1446 111.5 16.2283C111.631 16.3188 111.812 16.3979 112.045 16.468C112.276 16.5381 112.572 16.6014 112.929 16.6535C113.445 16.7371 113.925 16.8457 114.366 16.9768C114.809 17.108 115.189 17.2776 115.51 17.4812C115.831 17.6915 116.082 17.9448 116.263 18.2433C116.444 18.5418 116.534 18.8946 116.534 19.3062C116.534 19.6838 116.444 20.0344 116.263 20.351C116.082 20.6698 115.824 20.9435 115.494 21.1764C115.157 21.4071 114.752 21.588 114.277 21.7169C113.802 21.8458 113.275 21.9114 112.69 21.9114C112.047 21.9114 111.48 21.8277 110.989 21.6581C110.496 21.4908 110.085 21.2691 109.754 20.9955C109.422 20.7264 109.171 20.4211 109.001 20.0751C108.829 19.7313 108.746 19.3853 108.746 19.0371H110.838C110.853 19.2677 110.917 19.4667 111.028 19.6341C111.138 19.7992 111.281 19.9326 111.453 20.0321C111.627 20.1384 111.826 20.213 112.05 20.2605C112.274 20.308 112.504 20.3306 112.74 20.3306C113.024 20.3306 113.273 20.3058 113.486 20.256C113.698 20.2062 113.875 20.1384 114.01 20.0547C114.142 19.9711 114.241 19.8738 114.307 19.763C114.372 19.6522 114.406 19.5323 114.406 19.3989C114.406 19.2655 114.377 19.1524 114.316 19.0506L114.309 19.0597Z" fill="white"/>
<path d="M123.825 13.2115V19.9688H126.139V21.7531H119.176V19.9688H121.607V15.0026H119.176V13.2115H123.825ZM121.539 10.5543C121.6 10.4095 121.686 10.2851 121.794 10.1789C121.905 10.0794 122.039 10.0002 122.192 9.9414C122.349 9.88261 122.52 9.85547 122.71 9.85547C123.099 9.85547 123.409 9.96402 123.638 10.1834C123.866 10.4027 123.981 10.6832 123.981 11.0247C123.981 11.3661 123.866 11.6466 123.638 11.8659C123.409 12.0853 123.099 12.1938 122.71 12.1938C122.52 12.1938 122.349 12.1644 122.192 12.1079C122.036 12.0491 121.905 11.9677 121.794 11.8637C121.684 11.7642 121.598 11.642 121.539 11.4973C121.478 11.3526 121.448 11.1965 121.448 11.0269C121.448 10.8573 121.478 10.7013 121.539 10.5565V10.5543Z" fill="white"/>
<path d="M128.26 15.6764C128.439 15.1472 128.703 14.6881 129.049 14.2991C129.391 13.9101 129.811 13.6048 130.309 13.3832C130.806 13.1616 131.376 13.0508 132.019 13.0508C132.661 13.0508 133.231 13.1616 133.731 13.3832C134.23 13.6048 134.653 13.9101 135.002 14.2991C135.343 14.6881 135.603 15.1472 135.784 15.6764C135.963 16.2056 136.053 16.78 136.053 17.4019V17.567C136.053 18.1934 135.963 18.7701 135.784 19.2993C135.605 19.8284 135.345 20.2875 135.002 20.6765C134.66 21.0655 134.239 21.3708 133.74 21.5879C133.24 21.8072 132.672 21.9158 132.034 21.9158C131.397 21.9158 130.82 21.8072 130.318 21.5879C129.816 21.3708 129.393 21.0655 129.052 20.6765C128.703 20.2875 128.441 19.8284 128.262 19.2993C128.084 18.7701 127.993 18.1934 127.993 17.567V17.4019C127.993 16.78 128.084 16.2056 128.262 15.6764H128.26ZM130.289 18.5733C130.356 18.8854 130.465 19.159 130.612 19.3897C130.759 19.6272 130.951 19.8126 131.184 19.9506C131.419 20.0885 131.702 20.1564 132.032 20.1564C132.362 20.1564 132.629 20.0885 132.862 19.9506C133.095 19.8126 133.283 19.6272 133.43 19.3897C133.572 19.159 133.676 18.8854 133.746 18.5733C133.816 18.2612 133.848 17.9243 133.848 17.567V17.4019C133.848 17.0536 133.814 16.7257 133.746 16.4159C133.679 16.106 133.572 15.8324 133.43 15.595C133.283 15.3575 133.093 15.1721 132.862 15.0341C132.631 14.8984 132.349 14.8283 132.019 14.8283C131.688 14.8283 131.413 14.8962 131.182 15.0341C130.951 15.1721 130.761 15.3575 130.614 15.595C130.467 15.8324 130.359 16.106 130.291 16.4159C130.223 16.7257 130.189 17.0559 130.189 17.4019V17.567C130.189 17.9243 130.223 18.2612 130.291 18.5733H130.289Z" fill="white"/>
<path d="M137.994 13.2115H139.984L140.117 14.3965C140.228 14.2382 140.348 14.0935 140.481 13.9623C140.612 13.8312 140.753 13.7136 140.9 13.6073C141.153 13.4286 141.429 13.2907 141.73 13.1957C142.03 13.1007 142.347 13.0532 142.684 13.0532C143.116 13.0532 143.509 13.1165 143.869 13.2432C144.226 13.3698 144.538 13.5688 144.801 13.8425C145.058 14.1206 145.26 14.478 145.404 14.9122C145.549 15.3464 145.622 15.8733 145.622 16.4952V21.7532H143.428V16.5269C143.428 16.1899 143.389 15.9117 143.313 15.6946C143.236 15.4775 143.127 15.3034 142.985 15.1768C142.842 15.0501 142.673 14.9619 142.471 14.9122C142.272 14.8624 142.046 14.8375 141.793 14.8375C141.583 14.8375 141.388 14.8601 141.212 14.9076C141.035 14.9551 140.879 15.0252 140.741 15.1202C140.63 15.1881 140.531 15.2695 140.44 15.3645C140.35 15.4594 140.269 15.5635 140.196 15.6811V21.7509H137.994V13.2093V13.2115Z" fill="white"/>
<path d="M32 0H0V32H32V0Z" fill="#F92150"/>
<path d="M20.532 15.7239L18.8494 17.4064L13.4671 12.0241L9.5457 15.9478L13.008 19.4078L12.1826 20.231L11.3255 21.0904L7.86315 17.628L4.091 21.4025L3.94174 21.2555L2.55319 19.8669L2.40393 19.7199L13.4671 8.65674L14.3808 9.57264L20.532 15.7239Z" fill="#18181B"/>
<path d="M29.9624 11.925L18.8992 22.986L17.9878 22.0723L11.8366 15.9211L13.5169 14.2363L18.8992 19.6209L22.8229 15.6995L19.3606 12.2371L20.186 11.4139L21.0431 10.5546L24.5032 14.0169L28.2799 10.2402L28.4246 10.3895L29.9624 11.925Z" fill="#18181B"/>
</g>
<defs>
<clipPath id="clip0_106_1203">
<rect width="145.619" height="32" fill="white"/>
</clipPath>
</defs>
</svg>
