<svg width="64" height="64" viewBox="0 0 64 64" fill="none" xmlns="http://www.w3.org/2000/svg">
<g clip-path="url(#clip0_42_1203)">
<mask id="mask0_42_1203" style="mask-type:luminance" maskUnits="userSpaceOnUse" x="0" y="0" width="64" height="64">
<path d="M32 64C49.6731 64 64 49.6731 64 32C64 14.3269 49.6731 0 32 0C14.3269 0 0 14.3269 0 32C0 49.6731 14.3269 64 32 64Z" fill="white"/>
</mask>
<g mask="url(#mask0_42_1203)">
<path d="M32 64C49.6731 64 64 49.6731 64 32C64 14.3269 49.6731 0 32 0C14.3269 0 0 14.3269 0 32C0 49.6731 14.3269 64 32 64Z" fill="#18181B"/>
<path d="M16.7642 18.5995C16.5538 19.6158 16.2629 20.5995 16.0294 21.6111C15.9547 22.1006 15.307 21.8872 15.1974 22.3643C15.1251 22.7507 15.8172 22.6398 15.6383 23.0902C14.8365 25.9702 14.0075 28.8484 13.1749 31.7243C13.1038 31.9921 13.1405 32.0496 13.371 32.1124L14.9307 32.82L15.1209 32.58C15.2246 32.6072 15.3272 32.6357 15.4309 32.663C15.9506 32.8621 15.9695 32.0194 16.1349 31.6484C16.9147 29.0819 17.5304 26.4976 18.0981 23.9086C18.1432 23.7047 18.2149 23.5933 18.4104 23.5252C20.1633 22.8958 21.9162 22.2712 23.6744 21.6798C23.966 21.6004 24.4365 21.2715 24.0969 21.0055C21.4 18.823 22.475 19.7296 18.7826 20.8188C18.9935 19.6644 19.1962 18.5521 19.4042 17.4144C21.2709 16.6096 23.176 15.9939 25.0747 15.4013C25.7793 14.9735 32.0934 13.7871 31.4386 13.0677C31.0409 12.625 30.4679 11.0274 29.9517 10.9966C25.1672 12.2369 20.4341 14.087 15.7686 16.1249C15.262 16.4099 11.2158 18.0982 12.0015 18.7335C14.6984 21.1613 13.2833 19.9388 16.763 18.6001L16.7642 18.5995Z" fill="white"/>
<path d="M42.8141 18.4887C42.4295 19.4179 37.0565 26.6161 38.167 26.4638C38.7483 26.4318 40.778 27.1981 41.0695 26.6339C42.1593 25.0262 43.1922 23.3978 44.3134 21.8102C44.938 23.7432 45.1614 25.2443 45.6538 27.2401C45.7344 27.5595 45.7943 27.5921 46.0971 27.4837C49.143 26.1794 49.2479 27.287 48.4455 24.2511C48.0082 22.4875 47.6746 21.297 46.9238 19.7172C46.8159 19.4896 46.5652 19.367 46.3199 19.4221L45.5632 19.5927C45.3386 19.6431 45.1952 19.3604 45.3688 19.2093L46.9889 17.7972C47.0221 17.7681 47.0512 17.7355 47.0766 17.7C47.4517 17.1631 47.8245 16.625 48.2091 16.0958C48.6435 15.4446 49.0233 14.9658 49.3261 14.599C50.4746 13.2087 50.5066 13.4458 48.1397 12.0751C47.6811 11.8084 47.7273 11.6135 47.1839 12.3299C46.3543 13.425 45.5602 14.5284 44.7442 15.6378C44.0894 15.0155 43.8275 13.8867 43.0079 13.4944C42.2002 13.3652 41.3943 13.2301 40.5872 13.0979C40.4769 13.0795 40.3531 13.0422 40.2695 13.1939C39.8666 13.7089 41.399 15.0754 41.6129 15.6401C41.9128 16.3044 43.2272 17.7136 42.8147 18.4899L42.8141 18.4887Z" fill="white"/>
<path d="M30.8546 25.0686C31.7731 25.9854 33.3963 27.7922 35.0555 26.1946C36.3189 24.7291 37.2588 23.004 38.0007 21.2002C38.2289 20.6455 37.5616 20.7226 37.7554 20.1578C37.9213 19.6755 38.953 18.5525 39.0988 18.0701C39.2973 17.4153 39.4792 16.764 39.6505 16.1235C39.8229 15.5184 39.2588 15.2719 38.9909 14.9027C38.6419 14.5276 38.2875 14.1584 37.9462 13.775C37.7844 13.5937 37.6689 13.6168 37.4721 13.8787C36.5595 16.828 35.2529 21.0598 33.2386 23.7211C33.0383 23.9854 32.6182 23.8206 32.649 23.4906C32.822 21.6257 33.3174 19.7602 33.7168 17.89C33.8656 17.1883 32.662 16.3943 32.3302 15.8272C31.9011 15.0995 31.5711 15.6956 31.4555 16.3599C31.1254 18.8583 29.1533 23.3726 30.854 25.0686H30.8546Z" fill="white"/>
<path d="M27.7088 19.5675C27.8439 19.4626 27.9423 19.3175 27.9908 19.1533C28.1959 18.4659 28.3304 17.8354 28.1159 17.6653C27.6068 17.1823 27.1304 16.6603 26.6243 16.1738C25.995 15.462 25.0753 20.5749 24.7612 21.1746C23.9944 23.9634 23.1636 26.745 22.475 29.5432C22.4341 29.7062 22.4294 29.8502 22.5657 29.9403C23.1932 30.3551 23.819 30.7729 24.4448 31.1906C24.7707 31.3737 25.1494 30.8961 25.4943 30.78C27.5292 29.7257 29.5962 28.7746 31.6946 27.9871C31.8421 27.9296 31.931 27.804 31.9713 27.654C32.0092 27.516 31.9097 27.462 31.8285 27.4075C31.2258 27.004 30.6208 26.6028 30.0193 26.1975C29.8237 26.0458 29.5648 26.1874 29.3337 26.2686C28.0892 26.7954 26.8791 27.286 25.6371 27.8573C26.1354 25.5806 26.8371 23.3228 27.4326 21.0543C27.4433 20.9607 27.4706 20.8398 27.5079 20.7012C27.5428 20.5726 27.432 20.4511 27.3005 20.4736L26.7748 20.5643C26.6593 20.5844 26.5935 20.4363 26.6866 20.364L27.7094 19.5681L27.7088 19.5675Z" fill="white"/>
<path d="M60.5113 10.1197C59.94 9.86966 59.3783 9.60181 58.8111 9.34403C58.599 9.24744 58.4923 9.30255 58.4058 9.55618C58.4023 9.56626 58.3999 9.57633 58.3987 9.587C57.8944 13.5586 54.964 31.414 54.3092 35.3908C54.2843 35.542 54.0811 35.5728 54.0129 35.4359C53.2799 33.9639 52.5534 32.4409 51.6817 31.046C51.6319 30.9666 51.524 30.9482 51.4506 31.0063L50.5931 31.6848C50.4994 31.7588 50.3703 31.6551 50.4218 31.5479L50.9474 30.4587C50.9634 30.4255 50.9907 30.3988 51.0239 30.384C51.114 30.3431 51.1442 30.23 51.0867 30.1494C51.0666 30.1209 51.0464 30.0925 51.0263 30.064C50.8917 29.8543 50.7074 29.7197 50.4734 29.6397C50.4627 29.6362 50.4514 29.6344 50.4402 29.6332C50.0562 29.5971 48.759 28.8338 48.4301 29.0863C48.3904 29.1165 48.3709 29.1663 48.3732 29.216C48.6209 34.0184 48.6968 39.0738 47.2627 44.083C47.1744 44.3906 47.223 44.4634 47.5003 44.4889C48.0674 44.5405 48.6346 44.5914 49.2023 44.64C49.7255 44.6851 49.7285 44.6845 49.8938 44.1091C50.724 41.0667 51.0654 37.984 51.1051 34.9677C51.3054 34.9286 51.2674 34.9363 51.4677 34.8972C52.4888 37.2824 53.191 39.9206 53.0452 42.7609C53.0452 42.7639 53.0452 42.7674 53.0452 42.7704C53.047 43.011 53.0956 43.0738 53.284 43.078C53.978 43.0922 54.6719 43.1034 55.3676 43.1076C55.6052 43.1088 55.6775 43.0549 55.7516 42.7959C55.7528 42.7911 55.754 42.7858 55.7551 42.7805C56.6541 37.936 57.2704 33.075 58.0669 28.2258C58.068 28.2175 58.0686 28.2098 58.0686 28.2015C58.0728 27.4418 61.0648 10.2578 60.5125 10.1197H60.5113Z" fill="white"/>
<path d="M37.4105 28.7458C37.0372 28.7079 36.7581 29.6039 37.1765 29.6993C40.2455 29.9422 45.1131 32.0697 44.8049 36.8845C44.6491 39.8054 42.892 43.4113 40.2763 45.1464C39.0449 44.6877 39.2452 43.0249 39.5611 41.531C40.0748 39.3645 41.0005 37.2122 42.3907 34.9508C42.5098 34.7748 42.6751 34.5419 42.7871 34.3203L43.2956 33.6489C43.2956 33.6489 42.5027 33.0142 41.7691 33.5393C41.7691 33.5393 41.7685 33.5399 41.7679 33.5405C40.8328 33.4137 40.7919 33.7111 39.9089 34.9526C38.3439 37.272 35.4123 44.4299 37.8105 46.2243C38.2354 46.5425 38.7901 46.6457 39.3578 46.5384C40.8529 46.2575 42.2319 45.8243 43.5386 44.4365C46.143 41.7657 48.124 37.1695 46.7231 33.9227C45.2867 30.1461 41.0319 29.1156 37.4094 28.7452L37.4105 28.7458Z" fill="white"/>
<path d="M22.5518 38.3971C22.0955 38.2282 21.6439 38.0569 21.1823 37.8904C20.9613 37.8264 20.7906 37.8495 20.633 38.2821C20.1684 40.8545 19.5847 43.5088 18.3841 45.8643C17.8478 46.9257 17.4199 47.6931 16.8048 48.3378C16.521 48.6347 16.041 48.4551 15.9876 48.0291C15.9876 48.0255 15.9871 48.0225 15.9865 48.019C15.5242 44.2098 16.8777 42.864 16.2668 42.6596C15.7968 42.4871 15.286 42.1974 14.7639 42.0783C13.9977 42.2892 13.7133 45.2243 13.6712 46.0285C13.5959 49.3049 14.2845 50.2969 16.8919 50.4877C19.3939 49.9965 21.1687 45.7772 22.0908 42.3248C22.1565 42.0788 21.5752 42.3775 21.6327 42.1411C21.7062 41.8365 22.4143 41.0003 22.473 40.7177C22.5394 40.3977 22.5968 40.0937 22.6442 39.811C22.665 39.3494 23.0253 38.5766 22.5518 38.3965V38.3971Z" fill="white"/>
<path d="M36.6561 36.2028C36.4184 36.2922 36.2341 35.9853 36.4249 35.8176L37.1876 35.1456C37.2249 35.1124 37.251 35.0679 37.2605 35.0188C37.3192 34.7272 37.3766 34.4374 37.4324 34.1482C37.4999 33.7945 37.4365 33.6528 37.1515 33.5154C36.6851 33.2979 36.2306 33.0822 35.7601 32.8706C34.9778 32.5951 34.9921 34.0842 34.8161 34.6152C34.5292 36.0001 34.198 37.4306 33.859 38.8102C33.3482 40.9156 31.8549 46.6034 32.003 47.2351C32.2187 47.4863 32.6329 47.3542 32.9423 47.3939C32.9423 47.3939 33.651 47.4081 33.9817 47.4087C34.4309 47.3933 34.5044 47.097 34.5891 46.7539C34.7295 46.1844 34.8759 45.5746 35.0353 44.8896C35.6682 42.134 36.3633 39.2611 36.9601 36.4641C36.998 36.2875 36.8255 36.1388 36.6561 36.2028Z" fill="white"/>
<path d="M32.314 38.4586L32.3123 38.4574C32.6506 37.7931 32.557 36.4183 32.461 35.8672C32.3348 34.5564 30.8563 33.8915 29.7926 33.2456C26.9558 31.9691 23.2089 36.9878 24.3751 39.7759C24.9487 41.453 26.9321 42.0029 28.0284 43.2112C28.6317 43.901 28.5161 45.0239 27.9182 45.837C27.552 46.3217 26.349 47.306 25.741 47.0245C25.786 44.5279 26.5766 44.285 25.4435 43.8476L25.4192 43.2675C24.8717 43.0719 23.8305 43.3345 23.8305 43.3345C23.0974 43.4145 23.1502 45.0103 22.9736 45.5952C22.685 47.2497 23.36 48.1617 24.7638 48.4639C25.4269 48.7188 26.1185 49.005 26.8823 48.9552C30.2394 48.9439 32.6803 44.733 29.744 42.7673C28.986 42.2091 27.8809 41.6225 27.3398 40.9256C25.7825 39.1134 27.616 35.8927 29.8477 35.0873C30.1789 36.0106 29.5289 37.4779 30.0734 37.7878C30.2915 37.9276 30.5108 38.0711 30.7247 38.2121L30.2737 38.5457C30.2737 38.5457 30.4148 39.0393 31.2752 39.2029C32.1357 39.3665 32.3129 38.4598 32.3129 38.4598L32.314 38.4586Z" fill="white"/>
<path d="M16.0402 40.3496C16.4218 40.2282 16.5368 39.8987 16.167 39.7748C15.7984 39.5739 15.4221 39.3867 15.0654 39.1674C14.5332 38.9007 12.711 39.9283 11.4346 40.544C11.4055 40.5582 11.3783 40.576 11.3546 40.5973L10.7596 40.8551C11.0523 39.7867 11.3131 38.8409 11.5015 38.1535C11.5483 38.1197 11.6023 38.0913 11.668 38.067C14.5273 36.9683 17.4328 35.3938 20.3406 34.6815C20.631 34.5191 23.1815 34.253 22.4171 33.7191C21.4162 33.0773 21.4512 32.0871 20.8218 32.0693C17.5152 32.7484 14.2055 34.6353 10.9623 35.9218C10.6304 36.0794 10.4366 35.7884 10.1848 35.6753C9.93945 35.4981 9.8233 35.8999 9.79189 36.1114C9.88789 36.8516 5.57678 37.7802 6.36078 38.4036C7.58449 39.2634 7.21767 39.8572 7.72375 39.7227C8.06389 39.5716 8.5593 39.3049 8.9113 39.2077C8.65886 40.2536 8.39871 40.8847 8.10952 41.9271C8.07219 42.0533 8.00226 42.1203 7.89086 42.1707C5.9193 43.1064 5.34745 43.0003 7.52286 43.8756C6.631 46.9067 6.055 48.8077 5.19752 51.84C5.11041 52.1612 5.13767 52.2039 5.41204 52.2317C5.42449 52.2329 5.43752 52.2341 5.44997 52.2353L4.69086 54.051L7.21471 55.648C7.21471 55.648 7.88434 51.7333 8.8633 47.9212C9.23071 46.4901 9.71426 44.6886 10.183 42.9642C12.138 42.1049 14.0876 41.219 16.0402 40.3496Z" fill="white"/>
<path d="M32.5521 29.167C32.0662 29.5059 32.1337 30.0778 32.7044 30.4754C33.7159 31.1806 35.2626 32.1537 36.158 32.2046C36.5432 32.2265 36.8632 32.1382 37.1257 31.9972C37.7562 31.6594 37.6762 30.7314 36.9965 30.5092L32.6635 29.0894L32.5521 29.167Z" fill="white"/>
</g>
</g>
<defs>
<clipPath id="clip0_42_1203">
<rect width="64" height="64" fill="white"/>
</clipPath>
</defs>
</svg>
