<svg width="130" height="80" viewBox="0 0 130 80" fill="none" xmlns="http://www.w3.org/2000/svg">
<g clip-path="url(#clip0_42_1012)">
<path d="M118.695 22.5569C116.549 21.5378 114.207 20.6922 111.735 20.0273C97.989 16.2763 80.0939 17.8302 68.6241 24.3204C60.2403 29.0615 57.2192 35.3349 59.4742 41.0084C60.0452 42.4467 60.9558 43.8488 62.2134 45.1786C63.1746 46.2049 64.3382 47.1806 65.7042 48.0913L48.2284 55.4054C47.9465 55.2681 47.6574 55.1452 47.3683 55.044C46.1975 54.6393 45.164 54.6248 44.434 54.9284L1.24309 72.9896C0.520349 73.2932 0.0939324 73.9003 0.137297 74.7603C0.23848 76.4732 2.18988 78.5186 4.5171 79.328C5.68071 79.7328 6.72145 79.74 7.45142 79.4365L50.6495 61.3752C51.3651 61.0717 51.7915 60.4573 51.7409 59.6045C51.7192 59.2576 51.6108 58.8962 51.4446 58.5276L70.337 50.6281C73.358 51.994 76.7404 53.0131 80.318 53.7142C80.3614 53.7214 80.3975 53.7286 80.4336 53.7358C93.5369 56.2582 109.256 54.4297 119.678 48.5394C122.764 46.7976 125.121 44.8534 126.747 42.8008C127.889 41.3842 128.676 39.9171 129.117 38.4355C130.852 32.6608 127.354 26.662 118.695 22.5569Z" fill="#5C0B22"/>
<path d="M57.8118 19.6295L58.2816 30.8102C58.1009 26.4882 60.775 22.0434 66.3474 18.5309C77.4197 11.542 95.8062 10.8265 107.319 16.9264C113.036 19.9547 116.007 24.1104 116.187 28.3746L115.718 17.1938C115.537 12.9224 112.574 8.77391 106.85 5.74563C95.3364 -0.354287 76.9499 0.368452 65.8776 7.35011C60.3053 10.8626 57.6311 15.3075 57.8118 19.6295Z" fill="#8B062C"/>
<path d="M55.0654 19.7454L55.5352 30.9262C55.7303 35.6023 58.9827 40.1483 65.2416 43.4657C77.8462 50.1438 97.9672 49.356 110.088 41.7022C116.187 37.85 119.122 32.986 118.919 28.2521L118.45 17.0713C118.652 21.8052 115.718 26.6693 109.618 30.5215C97.4902 38.1753 77.3764 38.9631 64.7718 32.2849C58.5057 28.9676 55.2606 24.4215 55.0654 19.7454Z" fill="#E31B54"/>
<path d="M55.7013 22.9902C56.2145 24.4285 57.0312 25.8306 58.1586 27.1604C59.7487 29.054 61.9602 30.7886 64.7789 32.2846C77.3835 38.9627 97.4973 38.1749 109.625 30.5211C112.386 28.7793 114.496 26.8352 115.963 24.7826C116.982 23.366 117.683 21.8989 118.081 20.4172C119.635 14.6353 116.505 8.64383 108.75 4.53867C96.1458 -2.13944 76.032 -1.35165 63.9044 6.30215C56.3951 11.0433 53.6921 17.3167 55.7085 22.9902H55.7013ZM57.8189 18.6249C58.0574 14.6281 60.7316 10.588 65.8703 7.35012C76.9498 0.35401 95.3291 -0.368729 106.842 5.73842C112.147 8.54264 115.082 12.3153 115.624 16.247C115.819 17.6636 115.71 19.1091 115.284 20.5329C114.323 23.7346 111.779 26.8496 107.645 29.4659C96.5722 36.4548 78.193 37.1776 66.6797 31.0777C62.4228 28.8227 59.6836 25.9462 58.4983 22.8601C57.9635 21.4724 57.7322 20.0487 57.8189 18.6249Z" fill="#FF759C"/>
<path opacity="0.32" d="M58.4985 22.8604C59.6838 25.9465 62.423 28.823 66.6799 31.078C78.1932 37.1779 96.5724 36.4552 107.645 29.4663C111.779 26.8499 114.323 23.7349 115.284 20.5332C115.711 19.1022 115.826 17.6567 115.624 16.2474C114.034 14.3538 111.822 12.6192 109.004 11.1231C96.399 4.44503 76.2851 5.23282 64.1576 12.8866C61.3967 14.6284 59.2863 16.5726 57.8192 18.6252C57.7324 20.049 57.9565 21.48 58.4985 22.8604Z" fill="#FF5A88"/>
<path d="M62.5746 34.778L16.0229 64.3308C16.341 64.1285 16.7891 64.1429 17.295 64.4031L63.8466 34.8503C63.3407 34.5829 62.8926 34.5756 62.5746 34.778Z" fill="#BC1A48"/>
<path d="M18.7116 68.5659L65.2633 39.0131C65.574 38.8179 65.7547 38.4132 65.7403 37.8495C65.6969 36.722 64.8513 35.3777 63.8467 34.8501L17.2878 64.4101C18.2924 64.9377 19.1381 66.282 19.1814 67.4095C19.2031 67.9732 19.0224 68.3707 18.7044 68.5731L18.7116 68.5659Z" fill="#BC1A48"/>
<path d="M17.288 64.4102C16.2834 63.8826 15.5028 64.3668 15.5462 65.4943C15.5895 66.6217 16.4351 67.966 17.4397 68.4936C18.4443 69.0212 19.2249 68.537 19.1815 67.4095C19.1382 66.282 18.2926 64.9378 17.288 64.4102Z" fill="#07BAF3"/>
<path d="M38.7388 47.173L0.961182 71.1607C1.59719 70.756 2.50784 70.7704 3.52691 71.3125L41.3045 47.3248C40.2854 46.79 39.3748 46.7683 38.7388 47.173Z" fill="#E31B54"/>
<path d="M6.39637 79.7178L44.174 55.7301C44.8027 55.3326 45.1713 54.5159 45.1352 53.3812C45.0485 51.0973 43.3428 48.387 41.3119 47.3174L3.5271 71.3123C5.558 72.382 7.27089 75.0922 7.35039 77.3761C7.39375 78.5108 7.02516 79.3203 6.38915 79.725L6.39637 79.7178Z" fill="#E31B54"/>
<path d="M6.38864 79.719C7.75679 78.8505 7.65014 76.2313 6.15044 73.8691C4.65073 71.5068 2.32587 70.296 0.957724 71.1646C-0.410426 72.0332 -0.30378 74.6523 1.19593 77.0145C2.69563 79.3768 5.02049 80.5876 6.38864 79.719Z" fill="#BC1A48"/>
</g>
<defs>
<clipPath id="clip0_42_1012">
<rect width="129.544" height="80" fill="white"/>
</clipPath>
</defs>
</svg>
