<svg width="182" height="100" viewBox="0 0 182 100" fill="none" xmlns="http://www.w3.org/2000/svg">
<g clip-path="url(#clip0_42_1879)">
<path d="M82.2793 101.318L182.793 57.1122L151.117 39.5541L149.77 24.6897C149.547 22.2285 147.483 20.3486 145.012 20.3486H117.938L82.2793 101.318Z" fill="#5C0B22"/>
<path d="M144.44 63.7499V65.4553L60.1763 16.8119L60.186 15.1064L144.44 63.7499Z" fill="#DADDF6"/>
<path d="M65.2538 53.6239V55.3293L60.1763 16.8119L60.186 15.1064L65.2538 53.6239Z" fill="#DADDF6"/>
<path d="M65.254 55.3294C64.3237 55.1937 63.3644 55.1065 62.3857 55.0677V53.3623C63.3741 53.4011 64.3334 53.4883 65.2637 53.6239C65.2637 54.1375 65.2637 54.8158 65.2637 55.3294H65.254Z" fill="#F3F5FF"/>
<path d="M65.2539 55.3294C65.2539 54.7577 65.2539 54.1957 65.2539 53.624C68.3644 54.0698 71.1551 55 73.345 56.2597C73.345 56.8314 73.345 57.3934 73.345 57.9651C71.1454 56.6957 68.3644 55.7655 65.2539 55.3294Z" fill="#DADDF6"/>
<path d="M77.9281 62.6454C77.1529 60.8431 75.5443 59.2346 73.3447 57.9652C73.3447 57.3935 73.3447 56.8315 73.3447 56.2598C75.5443 57.5291 77.1529 59.1377 77.9281 60.94C77.9281 61.4536 77.9281 62.1319 77.9281 62.6454Z" fill="#DADDF6"/>
<path d="M144.44 63.75V65.4554L77.9282 62.6454L77.9379 60.9399L144.44 63.75Z" fill="#DADDF6"/>
<path d="M78.3933 64.3023C78.3158 63.7306 78.1608 63.1782 77.9282 62.6356V60.9302C78.1608 61.4728 78.3255 62.0251 78.3933 62.5968C78.3933 63.1104 78.3933 63.7887 78.3933 64.3023Z" fill="#F3F5FF"/>
<path d="M138.684 20.0483L144.44 63.7499L60.186 15.1064L136.824 18.3526C137.773 18.3913 138.558 19.1084 138.684 20.058V20.0483Z" fill="#F7618C"/>
<path d="M60.186 15.1064L144.45 63.7499L77.938 60.9398C77.1628 59.1375 75.5543 57.5289 73.3546 56.2595C71.155 54.9902 68.374 54.0599 65.2636 53.6239L60.186 15.1064Z" fill="#DADDF6"/>
<path d="M80.1861 97.5678V99.2732L2.00781 54.1376L2.0175 52.4321L80.1861 97.5678Z" fill="#EFF0F9"/>
<path d="M83.0932 98.2944V99.9999L78.3936 64.3022L78.4032 62.6064L83.0932 98.2944Z" fill="#F3F5FF"/>
<path d="M83.093 98.2946V100C82.0368 99.9807 80.9903 99.7384 80.186 99.2733V97.5679C81 98.033 82.0465 98.2752 83.093 98.2946Z" fill="#EFF0F9"/>
<path d="M166.95 52.1706L144.169 65.407L77.938 62.6067C77.1628 60.8043 75.5543 59.1958 73.3546 57.9264C71.155 56.657 68.374 55.7268 65.2636 55.2811L60.186 16.7636L82.6957 3.50781L166.959 52.1609L166.95 52.1706Z" fill="#BC1A48"/>
<path d="M107.909 49.2735C109.227 50.0293 109.237 51.2599 107.928 52.0254C106.62 52.7909 104.498 52.7812 103.18 52.0254L92.8509 46.0661C91.5331 45.3103 91.5234 44.0797 92.8315 43.3142C94.1397 42.5486 96.2618 42.5583 97.5796 43.3142L107.909 49.2735Z" fill="white"/>
<path d="M89.6336 38.721C90.9514 39.4768 90.9611 40.7074 89.653 41.4729C88.3448 42.2384 86.2227 42.2287 84.9049 41.4729L66.6297 30.9206C65.3119 30.1648 65.3022 28.9341 66.6103 28.1686C67.9185 27.4031 70.0406 27.4128 71.3584 28.1686L89.6336 38.721Z" fill="white"/>
<path d="M151.61 50.6686C151.61 50.6686 150.719 60.5136 144.159 63.75L77.9282 60.9496C77.153 59.1473 75.5445 57.5388 73.3449 56.2694C71.1453 55 68.3643 54.0698 65.2538 53.624L60.1763 15.1066C60.1763 15.1066 66.436 8.54651 65.6317 0L151.61 50.6686Z" fill="#E31B54"/>
<mask id="mask0_42_1879" style="mask-type:luminance" maskUnits="userSpaceOnUse" x="60" y="0" width="92" height="64">
<path d="M151.61 50.6686C151.61 50.6686 150.719 60.5136 144.159 63.75L77.9282 60.9496C77.153 59.1473 75.5445 57.5388 73.3449 56.2694C71.1453 55 68.3643 54.0698 65.2538 53.624L60.1763 15.1066C60.1763 15.1066 66.436 8.54651 65.6317 0L151.61 50.6686Z" fill="white"/>
</mask>
<g mask="url(#mask0_42_1879)">
<path d="M119.576 48.2073C120.651 48.8275 121.116 50.2131 120.632 51.2984L120.583 51.405C120.089 52.4903 118.829 52.8585 117.754 52.2383L77.5504 28.8856C76.4748 28.2654 76.0097 26.8798 76.4942 25.8042L76.5426 25.6976C77.0368 24.6123 78.2965 24.2441 79.3721 24.8643L119.576 48.217V48.2073Z" fill="white"/>
<path d="M112.25 56.1241C113.229 56.6764 113.335 57.8198 112.492 58.6822C111.649 59.5446 110.167 59.7965 109.188 59.2442L69.9536 37.1996C68.9749 36.6473 68.8683 35.5039 69.7113 34.6415C70.5544 33.7791 72.0369 33.5272 73.0156 34.0795L112.25 56.1241Z" fill="white"/>
<path d="M101.833 63.1104C102.764 63.653 102.773 64.5251 101.843 65.0581C100.913 65.591 99.4108 65.6007 98.4806 65.0581L61.1356 43.498C60.2054 42.9554 60.1957 42.0833 61.126 41.5503C62.0562 41.0174 63.5581 41.0077 64.4884 41.5503L101.833 63.1104Z" fill="white"/>
</g>
<path d="M83.1028 98.2945C82.0466 98.2752 81.0001 98.0329 80.1958 97.5678L2.0175 52.4321C1.76556 52.2868 1.55239 52.1318 1.37797 51.9573C0.990371 51.5891 0.777192 51.1628 0.757812 50.7461L39.1105 52.3643L50.5737 52.8488L62.3857 53.343C63.3644 53.3818 64.3237 53.469 65.2539 53.6046C68.3644 54.0504 71.1551 54.9806 73.345 56.25C75.5446 57.5194 77.1532 59.1279 77.9284 60.9302C78.1609 61.4728 78.3159 62.0252 78.3935 62.5969L79.033 67.4903L80.157 76.0756L81.4264 85.7267L83.0834 98.2849L83.1028 98.2945Z" fill="#E34A76"/>
<path d="M144.44 63.75L86.2517 97.5678C85.3893 98.0717 84.2362 98.314 83.0928 98.2946C83.0928 98.8663 83.0928 99.4283 83.0928 100C84.2362 100.019 85.3796 99.7771 86.2517 99.2733L144.44 65.4554V63.75Z" fill="#C22E58"/>
<path d="M2.0175 52.4321V53.0717C2.0175 52.8488 2.0175 52.6259 2.0175 52.4321C1.21324 51.967 0.786882 51.3566 0.757812 50.7461C0.757812 51.3178 0.757812 51.8798 0.757812 52.4515C0.796572 53.062 1.21324 53.6628 2.0175 54.1376L80.1958 99.2732V97.5678L2.0175 52.4321Z" fill="#C22E58"/>
<path d="M80.186 97.5679V99.2733C80.9902 99.7384 82.0367 99.9807 83.0832 100C83.0832 99.4283 83.0832 98.8663 83.0832 98.2946C82.027 98.2752 80.9805 98.033 80.1763 97.5679H80.186Z" fill="#C22E58"/>
<path d="M144.45 63.7499L86.2617 97.5581C85.3993 98.062 84.2462 98.3042 83.1028 98.2848L81.4458 85.7267L80.1764 76.0755L79.0524 67.4903L78.4129 62.5968C78.3354 62.0251 78.1803 61.4728 77.9478 60.9302L144.178 63.7306H144.459L144.45 63.7499Z" fill="#F7618C"/>
<path d="M65.2539 53.6239C64.3237 53.4882 63.3644 53.401 62.3857 53.3623L50.5737 52.8681L39.1105 52.3836L0.74808 50.7557C0.709321 50.0968 1.12599 49.4282 1.98839 48.9243L17.5116 39.903L60.1764 15.1064L65.2539 53.6239Z" fill="#F7618C"/>
</g>
<defs>
<clipPath id="clip0_42_1879">
<rect width="180.504" height="100" fill="white" transform="translate(0.748047)"/>
</clipPath>
</defs>
</svg>
