<svg width="19" height="24" viewBox="0 0 19 24" fill="none" xmlns="http://www.w3.org/2000/svg">
<g clip-path="url(#clip0_42_1873)">
<path d="M9.1782 18.3564C14.2472 18.3564 18.3564 14.2472 18.3564 9.1782C18.3564 4.10922 14.2472 0 9.1782 0C4.10922 0 0 4.10922 0 9.1782C0 14.2472 4.10922 18.3564 9.1782 18.3564Z" fill="#E31B54"/>
<path d="M1.71973 14.5278L9.17839 24L16.6371 14.5278H1.71973Z" fill="#E31B54"/>
<path d="M9.17843 12.0956C11.0128 12.0956 12.4999 10.6085 12.4999 8.77413C12.4999 6.93972 11.0128 5.45264 9.17843 5.45264C7.34402 5.45264 5.85693 6.93972 5.85693 8.77413C5.85693 10.6085 7.34402 12.0956 9.17843 12.0956Z" fill="white"/>
</g>
<defs>
<clipPath id="clip0_42_1873">
<rect width="18.3637" height="24" fill="white"/>
</clipPath>
</defs>
</svg>
